<?xml version="1.0" standalone="no"?>
<!DOCTYPE svg PUBLIC "-//W3C//DTD SVG 20010904//EN"
 "http://www.w3.org/TR/2001/REC-SVG-20010904/DTD/svg10.dtd">
<svg version="1.0" xmlns="http://www.w3.org/2000/svg"
 width="700.000000pt" height="700.000000pt" viewBox="0 0 700.000000 700.000000"
 preserveAspectRatio="xMidYMid meet">
<metadata>
Created by potrace 1.11, written by Peter Selinger 2001-2013
</metadata>
<g transform="translate(0.000000,700.000000) scale(0.100000,-0.100000)"
fill="#000000" stroke="none">
<path d="M4214 6045 c-507 -64 -943 -249 -1217 -518 -112 -109 -174 -191 -233
-309 -149 -296 -148 -679 1 -967 123 -237 367 -473 675 -653 181 -106 631
-328 980 -483 116 -52 377 -181 510 -253 296 -159 539 -389 608 -574 60 -162
51 -351 -25 -503 -125 -250 -462 -433 -903 -491 -97 -12 -176 -15 -350 -11
-236 5 -346 18 -530 63 -398 98 -685 259 -913 515 l-69 77 -81 -85 c-45 -47
-83 -89 -85 -93 -6 -15 128 -158 220 -236 388 -325 922 -496 1558 -496 373 -1
687 51 991 163 523 192 878 529 986 937 23 86 26 116 26 262 0 147 -3 176 -27
265 -34 129 -109 279 -189 380 -90 112 -265 278 -375 355 -191 134 -559 327
-1082 565 -277 127 -612 293 -725 359 -122 72 -221 150 -320 250 -146 148
-204 271 -212 451 -11 230 74 408 259 546 406 301 1131 342 1743 99 209 -83
418 -235 543 -395 l31 -40 87 87 87 86 -114 114 c-270 270 -655 447 -1139 524
-145 23 -564 28 -716 9z"/>
<path d="M740 3540 l0 -2450 425 0 425 0 0 2450 0 2450 -425 0 -425 0 0 -2450z"/>
</g>
</svg>
